<mxfile host="app.diagrams.net" agent="Mozilla/5.0 (Windows NT 10.0; Win64; x64) AppleWebKit/537.36 (KHTML, like Gecko) Chrome/137.0.0.0 Safari/537.36" version="27.1.4">
  <diagram name="第 1 页" id="CgOIkav4w_OP4wh0ILER">
    <mxGraphModel dx="825" dy="1583" grid="1" gridSize="10" guides="1" tooltips="1" connect="1" arrows="1" fold="1" page="1" pageScale="1" pageWidth="827" pageHeight="1169" math="0" shadow="0">
      <root>
        <mxCell id="0" />
        <mxCell id="1" parent="0" />
        <mxCell id="fN2lq4c-GM9t14NMBywm-14" style="edgeStyle=orthogonalEdgeStyle;rounded=0;orthogonalLoop=1;jettySize=auto;html=1;exitX=0.5;exitY=1;exitDx=0;exitDy=0;entryX=0.5;entryY=0;entryDx=0;entryDy=0;" parent="1" source="fN2lq4c-GM9t14NMBywm-1" target="fN2lq4c-GM9t14NMBywm-3" edge="1">
          <mxGeometry relative="1" as="geometry" />
        </mxCell>
        <mxCell id="fN2lq4c-GM9t14NMBywm-1" value="key pwr thread" style="rounded=0;whiteSpace=wrap;html=1;fillColor=#dae8fc;strokeColor=#6c8ebf;" parent="1" vertex="1">
          <mxGeometry x="560" y="230" width="90" height="30" as="geometry" />
        </mxCell>
        <mxCell id="fN2lq4c-GM9t14NMBywm-15" style="edgeStyle=orthogonalEdgeStyle;rounded=0;orthogonalLoop=1;jettySize=auto;html=1;exitX=0.5;exitY=1;exitDx=0;exitDy=0;entryX=0.5;entryY=0;entryDx=0;entryDy=0;" parent="1" source="fN2lq4c-GM9t14NMBywm-2" target="fN2lq4c-GM9t14NMBywm-7" edge="1">
          <mxGeometry relative="1" as="geometry" />
        </mxCell>
        <mxCell id="fN2lq4c-GM9t14NMBywm-2" value="key func thread" style="rounded=0;whiteSpace=wrap;html=1;fillColor=#dae8fc;strokeColor=#6c8ebf;" parent="1" vertex="1">
          <mxGeometry x="680" y="230" width="90" height="30" as="geometry" />
        </mxCell>
        <mxCell id="fN2lq4c-GM9t14NMBywm-17" style="edgeStyle=orthogonalEdgeStyle;rounded=0;orthogonalLoop=1;jettySize=auto;html=1;exitX=0.5;exitY=1;exitDx=0;exitDy=0;entryX=0.5;entryY=0;entryDx=0;entryDy=0;" parent="1" source="fN2lq4c-GM9t14NMBywm-3" edge="1" target="fN2lq4c-GM9t14NMBywm-12">
          <mxGeometry relative="1" as="geometry">
            <mxPoint x="610" y="470" as="targetPoint" />
            <Array as="points">
              <mxPoint x="605" y="410" />
              <mxPoint x="660" y="410" />
            </Array>
          </mxGeometry>
        </mxCell>
        <mxCell id="fN2lq4c-GM9t14NMBywm-3" value="Queue" style="rounded=0;whiteSpace=wrap;html=1;" parent="1" vertex="1">
          <mxGeometry x="570" y="320" width="70" height="30" as="geometry" />
        </mxCell>
        <mxCell id="fN2lq4c-GM9t14NMBywm-16" style="edgeStyle=orthogonalEdgeStyle;rounded=0;orthogonalLoop=1;jettySize=auto;html=1;exitX=0.5;exitY=1;exitDx=0;exitDy=0;entryX=0.5;entryY=0;entryDx=0;entryDy=0;" parent="1" source="fN2lq4c-GM9t14NMBywm-7" target="fN2lq4c-GM9t14NMBywm-12" edge="1">
          <mxGeometry relative="1" as="geometry" />
        </mxCell>
        <mxCell id="fN2lq4c-GM9t14NMBywm-7" value="Queue" style="rounded=0;whiteSpace=wrap;html=1;" parent="1" vertex="1">
          <mxGeometry x="690" y="320" width="70" height="30" as="geometry" />
        </mxCell>
        <mxCell id="exOdbHXadaTwi8HKsek1-2" style="edgeStyle=orthogonalEdgeStyle;rounded=0;orthogonalLoop=1;jettySize=auto;html=1;exitX=1;exitY=0.5;exitDx=0;exitDy=0;entryX=0;entryY=0.5;entryDx=0;entryDy=0;" parent="1" source="fN2lq4c-GM9t14NMBywm-9" target="exOdbHXadaTwi8HKsek1-1" edge="1">
          <mxGeometry relative="1" as="geometry" />
        </mxCell>
        <mxCell id="fN2lq4c-GM9t14NMBywm-9" value="Main thread" style="rounded=0;whiteSpace=wrap;html=1;fillColor=#ffe6cc;strokeColor=#d79b00;" parent="1" vertex="1">
          <mxGeometry x="110" y="570" width="104" height="30" as="geometry" />
        </mxCell>
        <mxCell id="fN2lq4c-GM9t14NMBywm-13" value="" style="edgeStyle=orthogonalEdgeStyle;rounded=0;orthogonalLoop=1;jettySize=auto;html=1;" parent="1" source="fN2lq4c-GM9t14NMBywm-10" target="fN2lq4c-GM9t14NMBywm-12" edge="1">
          <mxGeometry relative="1" as="geometry" />
        </mxCell>
        <mxCell id="fN2lq4c-GM9t14NMBywm-10" value="ScaleStateMachine::update" style="rounded=0;whiteSpace=wrap;html=1;" parent="1" vertex="1">
          <mxGeometry x="350" y="470" width="150" height="30" as="geometry" />
        </mxCell>
        <mxCell id="fN2lq4c-GM9t14NMBywm-19" value="" style="edgeStyle=orthogonalEdgeStyle;rounded=0;orthogonalLoop=1;jettySize=auto;html=1;" parent="1" source="fN2lq4c-GM9t14NMBywm-12" target="fN2lq4c-GM9t14NMBywm-18" edge="1">
          <mxGeometry relative="1" as="geometry" />
        </mxCell>
        <mxCell id="fN2lq4c-GM9t14NMBywm-21" value="" style="edgeStyle=orthogonalEdgeStyle;rounded=0;orthogonalLoop=1;jettySize=auto;html=1;" parent="1" source="fN2lq4c-GM9t14NMBywm-12" target="fN2lq4c-GM9t14NMBywm-20" edge="1">
          <mxGeometry relative="1" as="geometry" />
        </mxCell>
        <mxCell id="fN2lq4c-GM9t14NMBywm-12" value="M1NormalWeightState::update" style="rounded=0;whiteSpace=wrap;html=1;" parent="1" vertex="1">
          <mxGeometry x="540" y="470" width="240" height="30" as="geometry" />
        </mxCell>
        <mxCell id="78TvmmtV1T8RvOppDeKb-5" value="" style="edgeStyle=orthogonalEdgeStyle;rounded=0;orthogonalLoop=1;jettySize=auto;html=1;" edge="1" parent="1" source="fN2lq4c-GM9t14NMBywm-18" target="78TvmmtV1T8RvOppDeKb-4">
          <mxGeometry relative="1" as="geometry" />
        </mxCell>
        <mxCell id="fN2lq4c-GM9t14NMBywm-18" value="M2DualDisplayState::update" style="rounded=0;whiteSpace=wrap;html=1;" parent="1" vertex="1">
          <mxGeometry x="840" y="470" width="170" height="30" as="geometry" />
        </mxCell>
        <mxCell id="fN2lq4c-GM9t14NMBywm-20" value="CalibrationState" style="rounded=0;whiteSpace=wrap;html=1;" parent="1" vertex="1">
          <mxGeometry x="590" y="520" width="140" height="30" as="geometry" />
        </mxCell>
        <mxCell id="exOdbHXadaTwi8HKsek1-3" style="edgeStyle=orthogonalEdgeStyle;rounded=0;orthogonalLoop=1;jettySize=auto;html=1;exitX=0.5;exitY=0;exitDx=0;exitDy=0;entryX=0;entryY=0.5;entryDx=0;entryDy=0;" parent="1" source="exOdbHXadaTwi8HKsek1-1" target="fN2lq4c-GM9t14NMBywm-10" edge="1">
          <mxGeometry relative="1" as="geometry" />
        </mxCell>
        <mxCell id="exOdbHXadaTwi8HKsek1-5" style="edgeStyle=orthogonalEdgeStyle;rounded=0;orthogonalLoop=1;jettySize=auto;html=1;exitX=0.5;exitY=1;exitDx=0;exitDy=0;entryX=0;entryY=0.5;entryDx=0;entryDy=0;" parent="1" source="exOdbHXadaTwi8HKsek1-1" target="exOdbHXadaTwi8HKsek1-4" edge="1">
          <mxGeometry relative="1" as="geometry" />
        </mxCell>
        <mxCell id="exOdbHXadaTwi8HKsek1-7" value="开机阶段" style="edgeLabel;html=1;align=center;verticalAlign=middle;resizable=0;points=[];" parent="exOdbHXadaTwi8HKsek1-5" vertex="1" connectable="0">
          <mxGeometry x="-0.4284" relative="1" as="geometry">
            <mxPoint as="offset" />
          </mxGeometry>
        </mxCell>
        <mxCell id="exOdbHXadaTwi8HKsek1-1" value="Pwr Key" style="rhombus;whiteSpace=wrap;html=1;" parent="1" vertex="1">
          <mxGeometry x="260" y="562" width="80" height="45" as="geometry" />
        </mxCell>
        <mxCell id="exOdbHXadaTwi8HKsek1-6" style="edgeStyle=orthogonalEdgeStyle;rounded=0;orthogonalLoop=1;jettySize=auto;html=1;exitX=0.5;exitY=0;exitDx=0;exitDy=0;entryX=0.5;entryY=1;entryDx=0;entryDy=0;" parent="1" source="exOdbHXadaTwi8HKsek1-4" target="fN2lq4c-GM9t14NMBywm-10" edge="1">
          <mxGeometry relative="1" as="geometry" />
        </mxCell>
        <mxCell id="exOdbHXadaTwi8HKsek1-8" value="退出设置后" style="edgeLabel;html=1;align=center;verticalAlign=middle;resizable=0;points=[];" parent="exOdbHXadaTwi8HKsek1-6" vertex="1" connectable="0">
          <mxGeometry x="-0.0143" y="-1" relative="1" as="geometry">
            <mxPoint as="offset" />
          </mxGeometry>
        </mxCell>
        <mxCell id="exOdbHXadaTwi8HKsek1-4" value="settingsStateMachinePoll" style="rounded=0;whiteSpace=wrap;html=1;" parent="1" vertex="1">
          <mxGeometry x="350" y="640" width="150" height="30" as="geometry" />
        </mxCell>
        <mxCell id="exOdbHXadaTwi8HKsek1-11" value="" style="edgeStyle=orthogonalEdgeStyle;rounded=0;orthogonalLoop=1;jettySize=auto;html=1;" parent="1" source="exOdbHXadaTwi8HKsek1-9" target="exOdbHXadaTwi8HKsek1-10" edge="1">
          <mxGeometry relative="1" as="geometry" />
        </mxCell>
        <mxCell id="exOdbHXadaTwi8HKsek1-9" value="LoadCell::LoadCell()" style="rounded=0;whiteSpace=wrap;html=1;fillColor=#dae8fc;strokeColor=#6c8ebf;" parent="1" vertex="1">
          <mxGeometry x="110" y="750" width="120" height="30" as="geometry" />
        </mxCell>
        <mxCell id="exOdbHXadaTwi8HKsek1-10" value="数码管调调暗检测Thread" style="rounded=0;whiteSpace=wrap;html=1;fillColor=#dae8fc;strokeColor=#6c8ebf;" parent="1" vertex="1">
          <mxGeometry x="310" y="750" width="170" height="30" as="geometry" />
        </mxCell>
        <mxCell id="OIjPk3Im4qvFR1PwSDpp-3" value="" style="edgeStyle=orthogonalEdgeStyle;rounded=0;orthogonalLoop=1;jettySize=auto;html=1;" parent="1" source="OIjPk3Im4qvFR1PwSDpp-1" target="OIjPk3Im4qvFR1PwSDpp-2" edge="1">
          <mxGeometry relative="1" as="geometry" />
        </mxCell>
        <mxCell id="OIjPk3Im4qvFR1PwSDpp-1" value="PowerManager" style="rounded=0;whiteSpace=wrap;html=1;fillColor=#dae8fc;strokeColor=#6c8ebf;" parent="1" vertex="1">
          <mxGeometry x="110" y="840" width="120" height="30" as="geometry" />
        </mxCell>
        <mxCell id="OIjPk3Im4qvFR1PwSDpp-2" value="电源管理thread" style="rounded=0;whiteSpace=wrap;html=1;fillColor=#dae8fc;strokeColor=#6c8ebf;" parent="1" vertex="1">
          <mxGeometry x="310" y="840" width="120" height="30" as="geometry" />
        </mxCell>
        <mxCell id="78TvmmtV1T8RvOppDeKb-7" value="" style="edgeStyle=orthogonalEdgeStyle;rounded=0;orthogonalLoop=1;jettySize=auto;html=1;" edge="1" parent="1" source="78TvmmtV1T8RvOppDeKb-4" target="78TvmmtV1T8RvOppDeKb-6">
          <mxGeometry relative="1" as="geometry" />
        </mxCell>
        <mxCell id="78TvmmtV1T8RvOppDeKb-4" value="..." style="rounded=0;whiteSpace=wrap;html=1;" vertex="1" parent="1">
          <mxGeometry x="1060" y="470" width="60" height="30" as="geometry" />
        </mxCell>
        <mxCell id="78TvmmtV1T8RvOppDeKb-8" style="edgeStyle=orthogonalEdgeStyle;rounded=0;orthogonalLoop=1;jettySize=auto;html=1;exitX=0.5;exitY=0;exitDx=0;exitDy=0;entryX=0.75;entryY=0;entryDx=0;entryDy=0;" edge="1" parent="1" source="78TvmmtV1T8RvOppDeKb-6" target="fN2lq4c-GM9t14NMBywm-12">
          <mxGeometry relative="1" as="geometry">
            <Array as="points">
              <mxPoint x="1305" y="430" />
              <mxPoint x="720" y="430" />
            </Array>
          </mxGeometry>
        </mxCell>
        <mxCell id="78TvmmtV1T8RvOppDeKb-6" value="M6AutoSkinRemoveState::update" style="rounded=0;whiteSpace=wrap;html=1;" vertex="1" parent="1">
          <mxGeometry x="1200" y="470" width="210" height="30" as="geometry" />
        </mxCell>
        <mxCell id="78TvmmtV1T8RvOppDeKb-12" value="" style="edgeStyle=orthogonalEdgeStyle;rounded=0;orthogonalLoop=1;jettySize=auto;html=1;" edge="1" parent="1" source="78TvmmtV1T8RvOppDeKb-9" target="78TvmmtV1T8RvOppDeKb-11">
          <mxGeometry relative="1" as="geometry" />
        </mxCell>
        <mxCell id="78TvmmtV1T8RvOppDeKb-9" value="Mx OnEnter" style="rounded=0;whiteSpace=wrap;html=1;" vertex="1" parent="1">
          <mxGeometry x="120" y="110" width="115" height="30" as="geometry" />
        </mxCell>
        <mxCell id="78TvmmtV1T8RvOppDeKb-14" value="" style="edgeStyle=orthogonalEdgeStyle;rounded=0;orthogonalLoop=1;jettySize=auto;html=1;" edge="1" parent="1" source="78TvmmtV1T8RvOppDeKb-10" target="78TvmmtV1T8RvOppDeKb-13">
          <mxGeometry relative="1" as="geometry" />
        </mxCell>
        <mxCell id="78TvmmtV1T8RvOppDeKb-10" value="Mx OnExit" style="rounded=0;whiteSpace=wrap;html=1;" vertex="1" parent="1">
          <mxGeometry x="120" y="180" width="115" height="30" as="geometry" />
        </mxCell>
        <mxCell id="78TvmmtV1T8RvOppDeKb-11" value="创建蓝牙定时发送线程" style="rounded=0;whiteSpace=wrap;html=1;" vertex="1" parent="1">
          <mxGeometry x="315" y="110" width="210" height="30" as="geometry" />
        </mxCell>
        <mxCell id="78TvmmtV1T8RvOppDeKb-13" value="定制蓝牙定时发送线程" style="rounded=0;whiteSpace=wrap;html=1;" vertex="1" parent="1">
          <mxGeometry x="315" y="180" width="210" height="30" as="geometry" />
        </mxCell>
      </root>
    </mxGraphModel>
  </diagram>
</mxfile>
